<?xml version="1.0" encoding="iso-8859-1"?>
<!-- Uploaded to: SVG Repo, www.svgrepo.com, Transformed by: SVG Repo Tools -->
<svg fill="#000000" height="800px" width="800px" version="1.1" id="Layer_1" xmlns="http://www.w3.org/2000/svg" xmlns:xlink="http://www.w3.org/1999/xlink" 
	 viewBox="0 0 511.998 511.998" xml:space="preserve">
<g>
	<g>
		<path d="M372.307,327.357l-4.784-10.818c-0.412-0.937-0.834-1.864-1.276-2.791c-2.278-4.846-4.871-9.485-7.724-13.921
			l-61.289,26.885l36.143-55.129c-7.948-6.535-16.69-12.053-26.009-16.409l-35.995,54.904v-65.371
			c-5.063-0.652-10.194-1.005-15.374-1.005c-5.18,0-10.311,0.354-15.374,1.004V309.9l-35.795-54.824
			c-9.329,4.34-18.081,9.842-26.04,16.361l36.137,55.347l-61.457-26.959c-2.838,4.417-5.42,9.036-7.688,13.859
			c-0.471,0.991-0.894,1.919-1.308,2.854l-4.784,10.818l97.174,42.626l-37.237,16.336c9.522,21.636,31.178,36.744,56.371,36.744
			c25.193,0,46.85-15.107,56.371-36.744l-37.237-16.336L372.307,327.357z"/>
	</g>
</g>
<g>
	<g>
		<path d="M505.806,251.994C462.264,152.94,364.209,88.935,256,88.935S49.736,152.94,6.192,251.994L0,266.08l111.533,48.925
			l4.821-10.902c0.53-1.197,1.07-2.381,1.634-3.566c12.113-25.762,31.219-47.63,55.225-63.176
			c24.659-15.969,53.285-24.41,82.786-24.41c29.501,0,58.128,8.44,82.786,24.41c24.006,15.546,43.113,37.414,55.256,63.24
			c0.534,1.12,1.074,2.305,1.603,3.501l4.821,10.902l111.533-48.925L505.806,251.994z"/>
	</g>
</g>
<g>
</g>
<g>
</g>
<g>
</g>
<g>
</g>
<g>
</g>
<g>
</g>
<g>
</g>
<g>
</g>
<g>
</g>
<g>
</g>
<g>
</g>
<g>
</g>
<g>
</g>
<g>
</g>
<g>
</g>
</svg>